# xmcd CD database file
#
# Track frame offsets:
#	151
#	12469
#	27915
#	42345
#	55445
#	70875
#	85862
#	98494
#	113448
#	123968
#	137688
#	151528
#	164826
#	178336
#	191026
#	203086
#	215226
#	226761
#	240488
#	253321
#
# Disc length: 3571 seconds
#
# Revision: 0
# Processed by: cddbd v1.5.2PL0 Copyright (c) Steve Scherf et al.
# Submitted via: CDex 1.70beta2
#
DISCID=160df114
DTITLE=Django Reinhardt - Django Reinhardt Rhythm and Swing (Disc4 1937)
DYEAR=1937
DGENRE=Jazz
TTITLE0=Rose Room
TTITLE1=Body and Soul
TTITLE2=When Day Is Done
TTITLE3=Runnin' Wild
TTITLE4=Chicago
TTITLE5=Liebestraum No 3
TTITLE6=Miss Annabelle Lee
TTITLE7=A Little Love, A Little Kiss
TTITLE8=Mystery Pacific
TTITLE9=In a Sentimental Mood
TTITLE10=The Sheik of Araby
TTITLE11=Improvisation
TTITLE12=Parfum
TTITLE13=Alabamy Bound
TTITLE14=St.Louis Blues
TTITLE15=Bouncin' Around
TTITLE16=I've Found a New Baby
TTITLE17=Bricktop
TTITLE18=Speevey
TTITLE19=Minor Swing
EXTD=YEAR: 1937
EXTT0=
EXTT1=
EXTT2=
EXTT3=
EXTT4=
EXTT5=
EXTT6=
EXTT7=
EXTT8=
EXTT9=
EXTT10=
EXTT11=
EXTT12=
EXTT13=
EXTT14=
EXTT15=
EXTT16=
EXTT17=
EXTT18=
EXTT19=
PLAYORDER=
